<?xml version="1.0" encoding="utf-8"?>
<!-- Generator: Adobe Illustrator 22.1.0, SVG Export Plug-In . SVG Version: 6.00 Build 0)  -->
<svg version="1.1" id="Layer_1" xmlns="http://www.w3.org/2000/svg" xmlns:xlink="http://www.w3.org/1999/xlink" x="0px" y="0px"
	 viewBox="0 0 180 180" style="enable-background:new 0 0 180 180;" xml:space="preserve">
<style type="text/css">
	.st0{fill:#A37A2D;}
</style>
<g>
	<path class="st0" d="M143.2,126.6l-8.3,34.2h-98v-1c11.5,0,12.7-7.5,12.7-22.2v-95c0-14.8-1.2-22.2-12.7-22.2v-1h91.6l6.9,27.9h-1
		c-5.9-13.1-17.4-26.9-37.6-26.9H79.9c-11.5,0-12.5,7.5-12.7,22.2v47.3h14.8c15.8,0,28.3-11.3,28.3-24.9h1v50.7h-1
		c0-13.5-12.5-24.9-28.3-24.9H67.2v46.7c0.2,14.8,1.2,22.2,12.7,22.2h23c20.4,0,33.3-20,39.2-33.1H143.2z"/>
</g>
</svg>
